ISO-10303-21;
HEADER;
FILE_DESCRIPTION(('Open CASCADE Model'),'2;1');
FILE_NAME('Open CASCADE Shape Model','2026-06-06T00:12:56',('Author'),(
    'Open CASCADE'),'Open CASCADE STEP processor 7.8','Open CASCADE 7.8'
  ,'Unknown');
FILE_SCHEMA(('AUTOMOTIVE_DESIGN { 1 0 10303 214 1 1 1 1 }'));
ENDSEC;
DATA;
#1 = APPLICATION_PROTOCOL_DEFINITION('international standard',
  'automotive_design',2000,#2);
#2 = APPLICATION_CONTEXT(
  'core data for automotive mechanical design processes');
#3 = SHAPE_DEFINITION_REPRESENTATION(#4,#10);
#4 = PRODUCT_DEFINITION_SHAPE('','',#5);
#5 = PRODUCT_DEFINITION('design','',#6,#9);
#6 = PRODUCT_DEFINITION_FORMATION('','',#7);
#7 = PRODUCT('Open CASCADE STEP translator 7.8 1',
  'Open CASCADE STEP translator 7.8 1','',(#8));
#8 = PRODUCT_CONTEXT('',#2,'mechanical');
#9 = PRODUCT_DEFINITION_CONTEXT('part definition',#2,'design');
#10 = ADVANCED_BREP_SHAPE_REPRESENTATION('',(#11,#15),#1093);
#11 = AXIS2_PLACEMENT_3D('',#12,#13,#14);
#12 = CARTESIAN_POINT('',(0.,0.,0.));
#13 = DIRECTION('',(0.,0.,1.));
#14 = DIRECTION('',(1.,0.,-0.));
#15 = MANIFOLD_SOLID_BREP('',#16);
#16 = CLOSED_SHELL('',(#17,#137,#244,#421,#448,#475,#482,#672,#748,#825,
    #874,#924,#977,#1056,#1086));
#17 = ADVANCED_FACE('',(#18),#32,.F.);
#18 = FACE_BOUND('',#19,.F.);
#19 = EDGE_LOOP('',(#20,#55,#83,#111));
#20 = ORIENTED_EDGE('',*,*,#21,.T.);
#21 = EDGE_CURVE('',#22,#24,#26,.T.);
#22 = VERTEX_POINT('',#23);
#23 = CARTESIAN_POINT('',(0.,0.,0.));
#24 = VERTEX_POINT('',#25);
#25 = CARTESIAN_POINT('',(40.,0.,0.));
#26 = SURFACE_CURVE('',#27,(#31,#43),.PCURVE_S1.);
#27 = LINE('',#28,#29);
#28 = CARTESIAN_POINT('',(0.,0.,0.));
#29 = VECTOR('',#30,1.);
#30 = DIRECTION('',(1.,0.,0.));
#31 = PCURVE('',#32,#37);
#32 = PLANE('',#33);
#33 = AXIS2_PLACEMENT_3D('',#34,#35,#36);
#34 = CARTESIAN_POINT('',(0.,0.,0.));
#35 = DIRECTION('',(0.,0.,1.));
#36 = DIRECTION('',(0.,1.,0.));
#37 = DEFINITIONAL_REPRESENTATION('',(#38),#42);
#38 = LINE('',#39,#40);
#39 = CARTESIAN_POINT('',(0.,0.));
#40 = VECTOR('',#41,1.);
#41 = DIRECTION('',(0.,-1.));
#42 = ( GEOMETRIC_REPRESENTATION_CONTEXT(2) 
PARAMETRIC_REPRESENTATION_CONTEXT() REPRESENTATION_CONTEXT('2D SPACE',''
  ) );
#43 = PCURVE('',#44,#49);
#44 = PLANE('',#45);
#45 = AXIS2_PLACEMENT_3D('',#46,#47,#48);
#46 = CARTESIAN_POINT('',(0.,0.,25.));
#47 = DIRECTION('',(-0.,1.,0.));
#48 = DIRECTION('',(0.,0.,-1.));
#49 = DEFINITIONAL_REPRESENTATION('',(#50),#54);
#50 = LINE('',#51,#52);
#51 = CARTESIAN_POINT('',(25.,0.));
#52 = VECTOR('',#53,1.);
#53 = DIRECTION('',(0.,-1.));
#54 = ( GEOMETRIC_REPRESENTATION_CONTEXT(2) 
PARAMETRIC_REPRESENTATION_CONTEXT() REPRESENTATION_CONTEXT('2D SPACE',''
  ) );
#55 = ORIENTED_EDGE('',*,*,#56,.T.);
#56 = EDGE_CURVE('',#24,#57,#59,.T.);
#57 = VERTEX_POINT('',#58);
#58 = CARTESIAN_POINT('',(40.,40.,0.));
#59 = SURFACE_CURVE('',#60,(#64,#71),.PCURVE_S1.);
#60 = LINE('',#61,#62);
#61 = CARTESIAN_POINT('',(40.,0.,0.));
#62 = VECTOR('',#63,1.);
#63 = DIRECTION('',(0.,1.,0.));
#64 = PCURVE('',#32,#65);
#65 = DEFINITIONAL_REPRESENTATION('',(#66),#70);
#66 = LINE('',#67,#68);
#67 = CARTESIAN_POINT('',(0.,-40.));
#68 = VECTOR('',#69,1.);
#69 = DIRECTION('',(1.,0.));
#70 = ( GEOMETRIC_REPRESENTATION_CONTEXT(2) 
PARAMETRIC_REPRESENTATION_CONTEXT() REPRESENTATION_CONTEXT('2D SPACE',''
  ) );
#71 = PCURVE('',#72,#77);
#72 = PLANE('',#73);
#73 = AXIS2_PLACEMENT_3D('',#74,#75,#76);
#74 = CARTESIAN_POINT('',(40.,22.890516873035,19.785271995059));
#75 = DIRECTION('',(1.,0.,0.));
#76 = DIRECTION('',(-0.,0.,1.));
#77 = DEFINITIONAL_REPRESENTATION('',(#78),#82);
#78 = LINE('',#79,#80);
#79 = CARTESIAN_POINT('',(-19.78527199505,22.890516873035));
#80 = VECTOR('',#81,1.);
#81 = DIRECTION('',(0.,-1.));
#82 = ( GEOMETRIC_REPRESENTATION_CONTEXT(2) 
PARAMETRIC_REPRESENTATION_CONTEXT() REPRESENTATION_CONTEXT('2D SPACE',''
  ) );
#83 = ORIENTED_EDGE('',*,*,#84,.F.);
#84 = EDGE_CURVE('',#85,#57,#87,.T.);
#85 = VERTEX_POINT('',#86);
#86 = CARTESIAN_POINT('',(0.,40.,0.));
#87 = SURFACE_CURVE('',#88,(#92,#99),.PCURVE_S1.);
#88 = LINE('',#89,#90);
#89 = CARTESIAN_POINT('',(0.,40.,0.));
#90 = VECTOR('',#91,1.);
#91 = DIRECTION('',(1.,0.,0.));
#92 = PCURVE('',#32,#93);
#93 = DEFINITIONAL_REPRESENTATION('',(#94),#98);
#94 = LINE('',#95,#96);
#95 = CARTESIAN_POINT('',(40.,0.));
#96 = VECTOR('',#97,1.);
#97 = DIRECTION('',(0.,-1.));
#98 = ( GEOMETRIC_REPRESENTATION_CONTEXT(2) 
PARAMETRIC_REPRESENTATION_CONTEXT() REPRESENTATION_CONTEXT('2D SPACE',''
  ) );
#99 = PCURVE('',#100,#105);
#100 = PLANE('',#101);
#101 = AXIS2_PLACEMENT_3D('',#102,#103,#104);
#102 = CARTESIAN_POINT('',(0.,40.,0.));
#103 = DIRECTION('',(0.,-1.,0.));
#104 = DIRECTION('',(0.,0.,1.));
#105 = DEFINITIONAL_REPRESENTATION('',(#106),#110);
#106 = LINE('',#107,#108);
#107 = CARTESIAN_POINT('',(0.,0.));
#108 = VECTOR('',#109,1.);
#109 = DIRECTION('',(0.,-1.));
#110 = ( GEOMETRIC_REPRESENTATION_CONTEXT(2) 
PARAMETRIC_REPRESENTATION_CONTEXT() REPRESENTATION_CONTEXT('2D SPACE',''
  ) );
#111 = ORIENTED_EDGE('',*,*,#112,.F.);
#112 = EDGE_CURVE('',#22,#85,#113,.T.);
#113 = SURFACE_CURVE('',#114,(#118,#125),.PCURVE_S1.);
#114 = LINE('',#115,#116);
#115 = CARTESIAN_POINT('',(0.,0.,0.));
#116 = VECTOR('',#117,1.);
#117 = DIRECTION('',(0.,1.,0.));
#118 = PCURVE('',#32,#119);
#119 = DEFINITIONAL_REPRESENTATION('',(#120),#124);
#120 = LINE('',#121,#122);
#121 = CARTESIAN_POINT('',(0.,0.));
#122 = VECTOR('',#123,1.);
#123 = DIRECTION('',(1.,0.));
#124 = ( GEOMETRIC_REPRESENTATION_CONTEXT(2) 
PARAMETRIC_REPRESENTATION_CONTEXT() REPRESENTATION_CONTEXT('2D SPACE',''
  ) );
#125 = PCURVE('',#126,#131);
#126 = PLANE('',#127);
#127 = AXIS2_PLACEMENT_3D('',#128,#129,#130);
#128 = CARTESIAN_POINT('',(0.,22.890516873035,19.785271995059));
#129 = DIRECTION('',(1.,0.,0.));
#130 = DIRECTION('',(-0.,0.,1.));
#131 = DEFINITIONAL_REPRESENTATION('',(#132),#136);
#132 = LINE('',#133,#134);
#133 = CARTESIAN_POINT('',(-19.78527199505,22.890516873035));
#134 = VECTOR('',#135,1.);
#135 = DIRECTION('',(0.,-1.));
#136 = ( GEOMETRIC_REPRESENTATION_CONTEXT(2) 
PARAMETRIC_REPRESENTATION_CONTEXT() REPRESENTATION_CONTEXT('2D SPACE',''
  ) );
#137 = ADVANCED_FACE('',(#138,#213),#44,.F.);
#138 = FACE_BOUND('',#139,.F.);
#139 = EDGE_LOOP('',(#140,#170,#191,#192));
#140 = ORIENTED_EDGE('',*,*,#141,.T.);
#141 = EDGE_CURVE('',#142,#144,#146,.T.);
#142 = VERTEX_POINT('',#143);
#143 = CARTESIAN_POINT('',(0.,0.,25.));
#144 = VERTEX_POINT('',#145);
#145 = CARTESIAN_POINT('',(40.,0.,25.));
#146 = SURFACE_CURVE('',#147,(#151,#158),.PCURVE_S1.);
#147 = LINE('',#148,#149);
#148 = CARTESIAN_POINT('',(0.,0.,25.));
#149 = VECTOR('',#150,1.);
#150 = DIRECTION('',(1.,0.,0.));
#151 = PCURVE('',#44,#152);
#152 = DEFINITIONAL_REPRESENTATION('',(#153),#157);
#153 = LINE('',#154,#155);
#154 = CARTESIAN_POINT('',(0.,0.));
#155 = VECTOR('',#156,1.);
#156 = DIRECTION('',(0.,-1.));
#157 = ( GEOMETRIC_REPRESENTATION_CONTEXT(2) 
PARAMETRIC_REPRESENTATION_CONTEXT() REPRESENTATION_CONTEXT('2D SPACE',''
  ) );
#158 = PCURVE('',#159,#164);
#159 = PLANE('',#160);
#160 = AXIS2_PLACEMENT_3D('',#161,#162,#163);
#161 = CARTESIAN_POINT('',(0.,40.,48.));
#162 = DIRECTION('',(0.,0.498471124258,-0.866906303058));
#163 = DIRECTION('',(0.,-0.866906303058,-0.498471124258));
#164 = DEFINITIONAL_REPRESENTATION('',(#165),#169);
#165 = LINE('',#166,#167);
#166 = CARTESIAN_POINT('',(46.141087980237,0.));
#167 = VECTOR('',#168,1.);
#168 = DIRECTION('',(0.,-1.));
#169 = ( GEOMETRIC_REPRESENTATION_CONTEXT(2) 
PARAMETRIC_REPRESENTATION_CONTEXT() REPRESENTATION_CONTEXT('2D SPACE',''
  ) );
#170 = ORIENTED_EDGE('',*,*,#171,.T.);
#171 = EDGE_CURVE('',#144,#24,#172,.T.);
#172 = SURFACE_CURVE('',#173,(#177,#184),.PCURVE_S1.);
#173 = LINE('',#174,#175);
#174 = CARTESIAN_POINT('',(40.,0.,25.));
#175 = VECTOR('',#176,1.);
#176 = DIRECTION('',(0.,0.,-1.));
#177 = PCURVE('',#44,#178);
#178 = DEFINITIONAL_REPRESENTATION('',(#179),#183);
#179 = LINE('',#180,#181);
#180 = CARTESIAN_POINT('',(0.,-40.));
#181 = VECTOR('',#182,1.);
#182 = DIRECTION('',(1.,0.));
#183 = ( GEOMETRIC_REPRESENTATION_CONTEXT(2) 
PARAMETRIC_REPRESENTATION_CONTEXT() REPRESENTATION_CONTEXT('2D SPACE',''
  ) );
#184 = PCURVE('',#72,#185);
#185 = DEFINITIONAL_REPRESENTATION('',(#186),#190);
#186 = LINE('',#187,#188);
#187 = CARTESIAN_POINT('',(5.214728004941,22.890516873035));
#188 = VECTOR('',#189,1.);
#189 = DIRECTION('',(-1.,0.));
#190 = ( GEOMETRIC_REPRESENTATION_CONTEXT(2) 
PARAMETRIC_REPRESENTATION_CONTEXT() REPRESENTATION_CONTEXT('2D SPACE',''
  ) );
#191 = ORIENTED_EDGE('',*,*,#21,.F.);
#192 = ORIENTED_EDGE('',*,*,#193,.F.);
#193 = EDGE_CURVE('',#142,#22,#194,.T.);
#194 = SURFACE_CURVE('',#195,(#199,#206),.PCURVE_S1.);
#195 = LINE('',#196,#197);
#196 = CARTESIAN_POINT('',(0.,0.,25.));
#197 = VECTOR('',#198,1.);
#198 = DIRECTION('',(0.,0.,-1.));
#199 = PCURVE('',#44,#200);
#200 = DEFINITIONAL_REPRESENTATION('',(#201),#205);
#201 = LINE('',#202,#203);
#202 = CARTESIAN_POINT('',(0.,0.));
#203 = VECTOR('',#204,1.);
#204 = DIRECTION('',(1.,0.));
#205 = ( GEOMETRIC_REPRESENTATION_CONTEXT(2) 
PARAMETRIC_REPRESENTATION_CONTEXT() REPRESENTATION_CONTEXT('2D SPACE',''
  ) );
#206 = PCURVE('',#126,#207);
#207 = DEFINITIONAL_REPRESENTATION('',(#208),#212);
#208 = LINE('',#209,#210);
#209 = CARTESIAN_POINT('',(5.214728004941,22.890516873035));
#210 = VECTOR('',#211,1.);
#211 = DIRECTION('',(-1.,0.));
#212 = ( GEOMETRIC_REPRESENTATION_CONTEXT(2) 
PARAMETRIC_REPRESENTATION_CONTEXT() REPRESENTATION_CONTEXT('2D SPACE',''
  ) );
#213 = FACE_BOUND('',#214,.F.);
#214 = EDGE_LOOP('',(#215));
#215 = ORIENTED_EDGE('',*,*,#216,.F.);
#216 = EDGE_CURVE('',#217,#217,#219,.T.);
#217 = VERTEX_POINT('',#218);
#218 = CARTESIAN_POINT('',(20.,0.,19.5));
#219 = SURFACE_CURVE('',#220,(#225,#232),.PCURVE_S1.);
#220 = CIRCLE('',#221,7.5);
#221 = AXIS2_PLACEMENT_3D('',#222,#223,#224);
#222 = CARTESIAN_POINT('',(20.,0.,12.));
#223 = DIRECTION('',(0.,1.,0.));
#224 = DIRECTION('',(0.,-0.,1.));
#225 = PCURVE('',#44,#226);
#226 = DEFINITIONAL_REPRESENTATION('',(#227),#231);
#227 = CIRCLE('',#228,7.5);
#228 = AXIS2_PLACEMENT_2D('',#229,#230);
#229 = CARTESIAN_POINT('',(13.,-20.));
#230 = DIRECTION('',(-1.,-0.));
#231 = ( GEOMETRIC_REPRESENTATION_CONTEXT(2) 
PARAMETRIC_REPRESENTATION_CONTEXT() REPRESENTATION_CONTEXT('2D SPACE',''
  ) );
#232 = PCURVE('',#233,#238);
#233 = CYLINDRICAL_SURFACE('',#234,7.5);
#234 = AXIS2_PLACEMENT_3D('',#235,#236,#237);
#235 = CARTESIAN_POINT('',(20.,-1.,12.));
#236 = DIRECTION('',(0.,1.,0.));
#237 = DIRECTION('',(0.,-0.,1.));
#238 = DEFINITIONAL_REPRESENTATION('',(#239),#243);
#239 = LINE('',#240,#241);
#240 = CARTESIAN_POINT('',(0.,1.));
#241 = VECTOR('',#242,1.);
#242 = DIRECTION('',(1.,0.));
#243 = ( GEOMETRIC_REPRESENTATION_CONTEXT(2) 
PARAMETRIC_REPRESENTATION_CONTEXT() REPRESENTATION_CONTEXT('2D SPACE',''
  ) );
#244 = ADVANCED_FACE('',(#245,#315),#100,.F.);
#245 = FACE_BOUND('',#246,.F.);
#246 = EDGE_LOOP('',(#247,#248,#271,#294));
#247 = ORIENTED_EDGE('',*,*,#84,.T.);
#248 = ORIENTED_EDGE('',*,*,#249,.T.);
#249 = EDGE_CURVE('',#57,#250,#252,.T.);
#250 = VERTEX_POINT('',#251);
#251 = CARTESIAN_POINT('',(40.,40.,48.));
#252 = SURFACE_CURVE('',#253,(#257,#264),.PCURVE_S1.);
#253 = LINE('',#254,#255);
#254 = CARTESIAN_POINT('',(40.,40.,0.));
#255 = VECTOR('',#256,1.);
#256 = DIRECTION('',(0.,0.,1.));
#257 = PCURVE('',#100,#258);
#258 = DEFINITIONAL_REPRESENTATION('',(#259),#263);
#259 = LINE('',#260,#261);
#260 = CARTESIAN_POINT('',(0.,-40.));
#261 = VECTOR('',#262,1.);
#262 = DIRECTION('',(1.,0.));
#263 = ( GEOMETRIC_REPRESENTATION_CONTEXT(2) 
PARAMETRIC_REPRESENTATION_CONTEXT() REPRESENTATION_CONTEXT('2D SPACE',''
  ) );
#264 = PCURVE('',#72,#265);
#265 = DEFINITIONAL_REPRESENTATION('',(#266),#270);
#266 = LINE('',#267,#268);
#267 = CARTESIAN_POINT('',(-19.78527199505,-17.10948312696));
#268 = VECTOR('',#269,1.);
#269 = DIRECTION('',(1.,0.));
#270 = ( GEOMETRIC_REPRESENTATION_CONTEXT(2) 
PARAMETRIC_REPRESENTATION_CONTEXT() REPRESENTATION_CONTEXT('2D SPACE',''
  ) );
#271 = ORIENTED_EDGE('',*,*,#272,.F.);
#272 = EDGE_CURVE('',#273,#250,#275,.T.);
#273 = VERTEX_POINT('',#274);
#274 = CARTESIAN_POINT('',(0.,40.,48.));
#275 = SURFACE_CURVE('',#276,(#280,#287),.PCURVE_S1.);
#276 = LINE('',#277,#278);
#277 = CARTESIAN_POINT('',(0.,40.,48.));
#278 = VECTOR('',#279,1.);
#279 = DIRECTION('',(1.,0.,0.));
#280 = PCURVE('',#100,#281);
#281 = DEFINITIONAL_REPRESENTATION('',(#282),#286);
#282 = LINE('',#283,#284);
#283 = CARTESIAN_POINT('',(48.,0.));
#284 = VECTOR('',#285,1.);
#285 = DIRECTION('',(0.,-1.));
#286 = ( GEOMETRIC_REPRESENTATION_CONTEXT(2) 
PARAMETRIC_REPRESENTATION_CONTEXT() REPRESENTATION_CONTEXT('2D SPACE',''
  ) );
#287 = PCURVE('',#159,#288);
#288 = DEFINITIONAL_REPRESENTATION('',(#289),#293);
#289 = LINE('',#290,#291);
#290 = CARTESIAN_POINT('',(0.,0.));
#291 = VECTOR('',#292,1.);
#292 = DIRECTION('',(0.,-1.));
#293 = ( GEOMETRIC_REPRESENTATION_CONTEXT(2) 
PARAMETRIC_REPRESENTATION_CONTEXT() REPRESENTATION_CONTEXT('2D SPACE',''
  ) );
#294 = ORIENTED_EDGE('',*,*,#295,.F.);
#295 = EDGE_CURVE('',#85,#273,#296,.T.);
#296 = SURFACE_CURVE('',#297,(#301,#308),.PCURVE_S1.);
#297 = LINE('',#298,#299);
#298 = CARTESIAN_POINT('',(0.,40.,0.));
#299 = VECTOR('',#300,1.);
#300 = DIRECTION('',(0.,0.,1.));
#301 = PCURVE('',#100,#302);
#302 = DEFINITIONAL_REPRESENTATION('',(#303),#307);
#303 = LINE('',#304,#305);
#304 = CARTESIAN_POINT('',(0.,0.));
#305 = VECTOR('',#306,1.);
#306 = DIRECTION('',(1.,0.));
#307 = ( GEOMETRIC_REPRESENTATION_CONTEXT(2) 
PARAMETRIC_REPRESENTATION_CONTEXT() REPRESENTATION_CONTEXT('2D SPACE',''
  ) );
#308 = PCURVE('',#126,#309);
#309 = DEFINITIONAL_REPRESENTATION('',(#310),#314);
#310 = LINE('',#311,#312);
#311 = CARTESIAN_POINT('',(-19.78527199505,-17.10948312696));
#312 = VECTOR('',#313,1.);
#313 = DIRECTION('',(1.,0.));
#314 = ( GEOMETRIC_REPRESENTATION_CONTEXT(2) 
PARAMETRIC_REPRESENTATION_CONTEXT() REPRESENTATION_CONTEXT('2D SPACE',''
  ) );
#315 = FACE_BOUND('',#316,.F.);
#316 = EDGE_LOOP('',(#317,#345,#371,#397));
#317 = ORIENTED_EDGE('',*,*,#318,.T.);
#318 = EDGE_CURVE('',#319,#321,#323,.T.);
#319 = VERTEX_POINT('',#320);
#320 = CARTESIAN_POINT('',(36.5,40.,31.394446500535));
#321 = VERTEX_POINT('',#322);
#322 = CARTESIAN_POINT('',(3.5,40.,31.394446500535));
#323 = SURFACE_CURVE('',#324,(#328,#334),.PCURVE_S1.);
#324 = LINE('',#325,#326);
#325 = CARTESIAN_POINT('',(1.75,40.,31.394446500535));
#326 = VECTOR('',#327,1.);
#327 = DIRECTION('',(-1.,0.,0.));
#328 = PCURVE('',#100,#329);
#329 = DEFINITIONAL_REPRESENTATION('',(#330),#333);
#330 = B_SPLINE_CURVE_WITH_KNOTS('',1,(#331,#332),.UNSPECIFIED.,.F.,.F.,
  (2,2),(-34.75,-1.75),.PIECEWISE_BEZIER_KNOTS.);
#331 = CARTESIAN_POINT('',(31.394446500535,-36.5));
#332 = CARTESIAN_POINT('',(31.394446500535,-3.5));
#333 = ( GEOMETRIC_REPRESENTATION_CONTEXT(2) 
PARAMETRIC_REPRESENTATION_CONTEXT() REPRESENTATION_CONTEXT('2D SPACE',''
  ) );
#334 = PCURVE('',#335,#340);
#335 = PLANE('',#336);
#336 = AXIS2_PLACEMENT_3D('',#337,#338,#339);
#337 = CARTESIAN_POINT('',(3.5,23.331415712958,21.770834875401));
#338 = DIRECTION('',(0.,-0.5,0.866025403784));
#339 = DIRECTION('',(1.,0.,0.));
#340 = DEFINITIONAL_REPRESENTATION('',(#341),#344);
#341 = B_SPLINE_CURVE_WITH_KNOTS('',1,(#342,#343),.UNSPECIFIED.,.F.,.F.,
  (2,2),(-34.75,-1.75),.PIECEWISE_BEZIER_KNOTS.);
#342 = CARTESIAN_POINT('',(33.,19.247223250267));
#343 = CARTESIAN_POINT('',(0.,19.247223250267));
#344 = ( GEOMETRIC_REPRESENTATION_CONTEXT(2) 
PARAMETRIC_REPRESENTATION_CONTEXT() REPRESENTATION_CONTEXT('2D SPACE',''
  ) );
#345 = ORIENTED_EDGE('',*,*,#346,.T.);
#346 = EDGE_CURVE('',#321,#347,#349,.T.);
#347 = VERTEX_POINT('',#348);
#348 = CARTESIAN_POINT('',(3.5,40.,44.9));
#349 = SURFACE_CURVE('',#350,(#354,#360),.PCURVE_S1.);
#350 = LINE('',#351,#352);
#351 = CARTESIAN_POINT('',(3.5,40.,10.885417437701));
#352 = VECTOR('',#353,1.);
#353 = DIRECTION('',(-0.,0.,1.));
#354 = PCURVE('',#100,#355);
#355 = DEFINITIONAL_REPRESENTATION('',(#356),#359);
#356 = B_SPLINE_CURVE_WITH_KNOTS('',1,(#357,#358),.UNSPECIFIED.,.F.,.F.,
  (2,2),(20.509029062834,34.014582562299),.PIECEWISE_BEZIER_KNOTS.);
#357 = CARTESIAN_POINT('',(31.394446500535,-3.5));
#358 = CARTESIAN_POINT('',(44.9,-3.5));
#359 = ( GEOMETRIC_REPRESENTATION_CONTEXT(2) 
PARAMETRIC_REPRESENTATION_CONTEXT() REPRESENTATION_CONTEXT('2D SPACE',''
  ) );
#360 = PCURVE('',#361,#366);
#361 = PLANE('',#362);
#362 = AXIS2_PLACEMENT_3D('',#363,#364,#365);
#363 = CARTESIAN_POINT('',(3.5,23.331415712958,21.770834875401));
#364 = DIRECTION('',(1.,0.,0.));
#365 = DIRECTION('',(0.,-0.5,0.866025403784));
#366 = DEFINITIONAL_REPRESENTATION('',(#367),#370);
#367 = B_SPLINE_CURVE_WITH_KNOTS('',1,(#368,#369),.UNSPECIFIED.,.F.,.F.,
  (2,2),(20.509029062834,34.014582562299),.PIECEWISE_BEZIER_KNOTS.);
#368 = CARTESIAN_POINT('',(3.552713678801E-15,-19.24722325026));
#369 = CARTESIAN_POINT('',(11.696152422707,-26.));
#370 = ( GEOMETRIC_REPRESENTATION_CONTEXT(2) 
PARAMETRIC_REPRESENTATION_CONTEXT() REPRESENTATION_CONTEXT('2D SPACE',''
  ) );
#371 = ORIENTED_EDGE('',*,*,#372,.F.);
#372 = EDGE_CURVE('',#373,#347,#375,.T.);
#373 = VERTEX_POINT('',#374);
#374 = CARTESIAN_POINT('',(36.5,40.,44.9));
#375 = SURFACE_CURVE('',#376,(#380,#386),.PCURVE_S1.);
#376 = LINE('',#377,#378);
#377 = CARTESIAN_POINT('',(1.75,40.,44.9));
#378 = VECTOR('',#379,1.);
#379 = DIRECTION('',(-1.,0.,0.));
#380 = PCURVE('',#100,#381);
#381 = DEFINITIONAL_REPRESENTATION('',(#382),#385);
#382 = B_SPLINE_CURVE_WITH_KNOTS('',1,(#383,#384),.UNSPECIFIED.,.F.,.F.,
  (2,2),(-34.75,-1.75),.PIECEWISE_BEZIER_KNOTS.);
#383 = CARTESIAN_POINT('',(44.9,-36.5));
#384 = CARTESIAN_POINT('',(44.9,-3.5));
#385 = ( GEOMETRIC_REPRESENTATION_CONTEXT(2) 
PARAMETRIC_REPRESENTATION_CONTEXT() REPRESENTATION_CONTEXT('2D SPACE',''
  ) );
#386 = PCURVE('',#387,#392);
#387 = PLANE('',#388);
#388 = AXIS2_PLACEMENT_3D('',#389,#390,#391);
#389 = CARTESIAN_POINT('',(3.5,45.848076211353,34.770834875401));
#390 = DIRECTION('',(0.,0.866025403784,0.5));
#391 = DIRECTION('',(0.,-0.5,0.866025403784));
#392 = DEFINITIONAL_REPRESENTATION('',(#393),#396);
#393 = B_SPLINE_CURVE_WITH_KNOTS('',1,(#394,#395),.UNSPECIFIED.,.F.,.F.,
  (2,2),(-34.75,-1.75),.PIECEWISE_BEZIER_KNOTS.);
#394 = CARTESIAN_POINT('',(11.696152422707,33.));
#395 = CARTESIAN_POINT('',(11.696152422707,0.));
#396 = ( GEOMETRIC_REPRESENTATION_CONTEXT(2) 
PARAMETRIC_REPRESENTATION_CONTEXT() REPRESENTATION_CONTEXT('2D SPACE',''
  ) );
#397 = ORIENTED_EDGE('',*,*,#398,.F.);
#398 = EDGE_CURVE('',#319,#373,#399,.T.);
#399 = SURFACE_CURVE('',#400,(#404,#410),.PCURVE_S1.);
#400 = LINE('',#401,#402);
#401 = CARTESIAN_POINT('',(36.5,40.,10.885417437701));
#402 = VECTOR('',#403,1.);
#403 = DIRECTION('',(-0.,0.,1.));
#404 = PCURVE('',#100,#405);
#405 = DEFINITIONAL_REPRESENTATION('',(#406),#409);
#406 = B_SPLINE_CURVE_WITH_KNOTS('',1,(#407,#408),.UNSPECIFIED.,.F.,.F.,
  (2,2),(20.509029062834,34.014582562299),.PIECEWISE_BEZIER_KNOTS.);
#407 = CARTESIAN_POINT('',(31.394446500535,-36.5));
#408 = CARTESIAN_POINT('',(44.9,-36.5));
#409 = ( GEOMETRIC_REPRESENTATION_CONTEXT(2) 
PARAMETRIC_REPRESENTATION_CONTEXT() REPRESENTATION_CONTEXT('2D SPACE',''
  ) );
#410 = PCURVE('',#411,#416);
#411 = PLANE('',#412);
#412 = AXIS2_PLACEMENT_3D('',#413,#414,#415);
#413 = CARTESIAN_POINT('',(36.5,23.331415712958,21.770834875401));
#414 = DIRECTION('',(1.,0.,0.));
#415 = DIRECTION('',(0.,-0.5,0.866025403784));
#416 = DEFINITIONAL_REPRESENTATION('',(#417),#420);
#417 = B_SPLINE_CURVE_WITH_KNOTS('',1,(#418,#419),.UNSPECIFIED.,.F.,.F.,
  (2,2),(20.509029062834,34.014582562299),.PIECEWISE_BEZIER_KNOTS.);
#418 = CARTESIAN_POINT('',(3.552713678801E-15,-19.24722325026));
#419 = CARTESIAN_POINT('',(11.696152422707,-26.));
#420 = ( GEOMETRIC_REPRESENTATION_CONTEXT(2) 
PARAMETRIC_REPRESENTATION_CONTEXT() REPRESENTATION_CONTEXT('2D SPACE',''
  ) );
#421 = ADVANCED_FACE('',(#422),#126,.F.);
#422 = FACE_BOUND('',#423,.F.);
#423 = EDGE_LOOP('',(#424,#425,#426,#447));
#424 = ORIENTED_EDGE('',*,*,#112,.T.);
#425 = ORIENTED_EDGE('',*,*,#295,.T.);
#426 = ORIENTED_EDGE('',*,*,#427,.T.);
#427 = EDGE_CURVE('',#273,#142,#428,.T.);
#428 = SURFACE_CURVE('',#429,(#433,#440),.PCURVE_S1.);
#429 = LINE('',#430,#431);
#430 = CARTESIAN_POINT('',(0.,40.,48.));
#431 = VECTOR('',#432,1.);
#432 = DIRECTION('',(0.,-0.866906303058,-0.498471124258));
#433 = PCURVE('',#126,#434);
#434 = DEFINITIONAL_REPRESENTATION('',(#435),#439);
#435 = LINE('',#436,#437);
#436 = CARTESIAN_POINT('',(28.214728004941,-17.10948312696));
#437 = VECTOR('',#438,1.);
#438 = DIRECTION('',(-0.498471124258,0.866906303058));
#439 = ( GEOMETRIC_REPRESENTATION_CONTEXT(2) 
PARAMETRIC_REPRESENTATION_CONTEXT() REPRESENTATION_CONTEXT('2D SPACE',''
  ) );
#440 = PCURVE('',#159,#441);
#441 = DEFINITIONAL_REPRESENTATION('',(#442),#446);
#442 = LINE('',#443,#444);
#443 = CARTESIAN_POINT('',(0.,0.));
#444 = VECTOR('',#445,1.);
#445 = DIRECTION('',(1.,0.));
#446 = ( GEOMETRIC_REPRESENTATION_CONTEXT(2) 
PARAMETRIC_REPRESENTATION_CONTEXT() REPRESENTATION_CONTEXT('2D SPACE',''
  ) );
#447 = ORIENTED_EDGE('',*,*,#193,.T.);
#448 = ADVANCED_FACE('',(#449),#72,.T.);
#449 = FACE_BOUND('',#450,.T.);
#450 = EDGE_LOOP('',(#451,#452,#453,#474));
#451 = ORIENTED_EDGE('',*,*,#56,.T.);
#452 = ORIENTED_EDGE('',*,*,#249,.T.);
#453 = ORIENTED_EDGE('',*,*,#454,.T.);
#454 = EDGE_CURVE('',#250,#144,#455,.T.);
#455 = SURFACE_CURVE('',#456,(#460,#467),.PCURVE_S1.);
#456 = LINE('',#457,#458);
#457 = CARTESIAN_POINT('',(40.,40.,48.));
#458 = VECTOR('',#459,1.);
#459 = DIRECTION('',(0.,-0.866906303058,-0.498471124258));
#460 = PCURVE('',#72,#461);
#461 = DEFINITIONAL_REPRESENTATION('',(#462),#466);
#462 = LINE('',#463,#464);
#463 = CARTESIAN_POINT('',(28.214728004941,-17.10948312696));
#464 = VECTOR('',#465,1.);
#465 = DIRECTION('',(-0.498471124258,0.866906303058));
#466 = ( GEOMETRIC_REPRESENTATION_CONTEXT(2) 
PARAMETRIC_REPRESENTATION_CONTEXT() REPRESENTATION_CONTEXT('2D SPACE',''
  ) );
#467 = PCURVE('',#159,#468);
#468 = DEFINITIONAL_REPRESENTATION('',(#469),#473);
#469 = LINE('',#470,#471);
#470 = CARTESIAN_POINT('',(0.,-40.));
#471 = VECTOR('',#472,1.);
#472 = DIRECTION('',(1.,0.));
#473 = ( GEOMETRIC_REPRESENTATION_CONTEXT(2) 
PARAMETRIC_REPRESENTATION_CONTEXT() REPRESENTATION_CONTEXT('2D SPACE',''
  ) );
#474 = ORIENTED_EDGE('',*,*,#171,.T.);
#475 = ADVANCED_FACE('',(#476),#159,.F.);
#476 = FACE_BOUND('',#477,.F.);
#477 = EDGE_LOOP('',(#478,#479,#480,#481));
#478 = ORIENTED_EDGE('',*,*,#272,.T.);
#479 = ORIENTED_EDGE('',*,*,#454,.T.);
#480 = ORIENTED_EDGE('',*,*,#141,.F.);
#481 = ORIENTED_EDGE('',*,*,#427,.F.);
#482 = ADVANCED_FACE('',(#483),#233,.F.);
#483 = FACE_BOUND('',#484,.F.);
#484 = EDGE_LOOP('',(#485,#516,#586,#607,#608,#609));
#485 = ORIENTED_EDGE('',*,*,#486,.F.);
#486 = EDGE_CURVE('',#487,#489,#491,.T.);
#487 = VERTEX_POINT('',#488);
#488 = CARTESIAN_POINT('',(23.314387000458,11.,18.727914893278));
#489 = VERTEX_POINT('',#490);
#490 = CARTESIAN_POINT('',(16.685612999542,11.,18.727914893278));
#491 = SURFACE_CURVE('',#492,(#497,#504),.PCURVE_S1.);
#492 = CIRCLE('',#493,7.5);
#493 = AXIS2_PLACEMENT_3D('',#494,#495,#496);
#494 = CARTESIAN_POINT('',(20.,11.,12.));
#495 = DIRECTION('',(0.,1.,0.));
#496 = DIRECTION('',(0.,-0.,1.));
#497 = PCURVE('',#233,#498);
#498 = DEFINITIONAL_REPRESENTATION('',(#499),#503);
#499 = LINE('',#500,#501);
#500 = CARTESIAN_POINT('',(0.,12.));
#501 = VECTOR('',#502,1.);
#502 = DIRECTION('',(1.,0.));
#503 = ( GEOMETRIC_REPRESENTATION_CONTEXT(2) 
PARAMETRIC_REPRESENTATION_CONTEXT() REPRESENTATION_CONTEXT('2D SPACE',''
  ) );
#504 = PCURVE('',#505,#510);
#505 = PLANE('',#506);
#506 = AXIS2_PLACEMENT_3D('',#507,#508,#509);
#507 = CARTESIAN_POINT('',(20.,11.,12.));
#508 = DIRECTION('',(0.,1.,0.));
#509 = DIRECTION('',(0.,-0.,1.));
#510 = DEFINITIONAL_REPRESENTATION('',(#511),#515);
#511 = CIRCLE('',#512,7.5);
#512 = AXIS2_PLACEMENT_2D('',#513,#514);
#513 = CARTESIAN_POINT('',(0.,0.));
#514 = DIRECTION('',(1.,0.));
#515 = ( GEOMETRIC_REPRESENTATION_CONTEXT(2) 
PARAMETRIC_REPRESENTATION_CONTEXT() REPRESENTATION_CONTEXT('2D SPACE',''
  ) );
#516 = ORIENTED_EDGE('',*,*,#517,.T.);
#517 = EDGE_CURVE('',#487,#518,#520,.T.);
#518 = VERTEX_POINT('',#519);
#519 = CARTESIAN_POINT('',(20.,9.364648735556,19.5));
#520 = SURFACE_CURVE('',#521,(#539,#560),.PCURVE_S1.);
#521 = B_SPLINE_CURVE_WITH_KNOTS('',6,(#522,#523,#524,#525,#526,#527,
    #528,#529,#530,#531,#532,#533,#534,#535,#536,#537,#538),
  .UNSPECIFIED.,.F.,.F.,(7,5,5,7),(0.,0.421048646579,0.628606999459,1.),
  .UNSPECIFIED.);
#522 = CARTESIAN_POINT('',(23.314387400706,11.0000006,18.727914696103));
#523 = CARTESIAN_POINT('',(23.187916626321,10.810411964579,
    18.790218271596));
#524 = CARTESIAN_POINT('',(23.043600405642,10.626186511041,
    18.857767885354));
#525 = CARTESIAN_POINT('',(22.880354268722,10.449669347086,
    18.929369524157));
#526 = CARTESIAN_POINT('',(22.697392532056,10.283077971392,
    19.003222078874));
#527 = CARTESIAN_POINT('',(22.494365786853,10.128610470786,
    19.076919025561));
#528 = CARTESIAN_POINT('',(22.161765414074,9.919489880844,
    19.182621316515));
#529 = CARTESIAN_POINT('',(22.047209979079,9.853980159239,
    19.216798366231));
#530 = CARTESIAN_POINT('',(21.928058874795,9.792331296935,19.24989526822
    ));
#531 = CARTESIAN_POINT('',(21.80450476432,9.734840980378,19.281546092258
    ));
#532 = CARTESIAN_POINT('',(21.676795220029,9.681784332422,
    19.311390660655));
#533 = CARTESIAN_POINT('',(21.30982633832,9.546866192145,19.388655389726
    ));
#534 = CARTESIAN_POINT('',(21.061849755835,9.475237692173,
    19.431403663997));
#535 = CARTESIAN_POINT('',(20.803684911011,9.420294211393,
    19.465227440861));
#536 = CARTESIAN_POINT('',(20.538359919694,9.383217370229,19.48839701874
    ));
#537 = CARTESIAN_POINT('',(20.269293182344,9.364648735556,19.5));
#538 = CARTESIAN_POINT('',(20.,9.364648735556,19.5));
#539 = PCURVE('',#233,#540);
#540 = DEFINITIONAL_REPRESENTATION('',(#541),#559);
#541 = B_SPLINE_CURVE_WITH_KNOTS('',6,(#542,#543,#544,#545,#546,#547,
    #548,#549,#550,#551,#552,#553,#554,#555,#556,#557,#558),
  .UNSPECIFIED.,.F.,.F.,(7,5,5,7),(0.,0.421048646579,0.628606999459,1.),
  .UNSPECIFIED.);
#542 = CARTESIAN_POINT('',(0.457736013401,12.0000006));
#543 = CARTESIAN_POINT('',(0.438938097538,11.810411964579));
#544 = CARTESIAN_POINT('',(0.417696659119,11.626186511041));
#545 = CARTESIAN_POINT('',(0.39394016281,11.449669347086));
#546 = CARTESIAN_POINT('',(0.367653996676,11.283077971392));
#547 = CARTESIAN_POINT('',(0.338879147139,11.128610470786));
#548 = CARTESIAN_POINT('',(0.292346772309,10.919489880844));
#549 = CARTESIAN_POINT('',(0.276409938197,10.853980159239));
#550 = CARTESIAN_POINT('',(0.259926265717,10.792331296935));
#551 = CARTESIAN_POINT('',(0.242925947665,10.734840980378));
#552 = CARTESIAN_POINT('',(0.225443492423,10.681784332422));
#553 = CARTESIAN_POINT('',(0.175441537172,10.546866192145));
#554 = CARTESIAN_POINT('',(0.141912986029,10.475237692173));
#555 = CARTESIAN_POINT('',(0.107241140642,10.420294211393));
#556 = CARTESIAN_POINT('',(7.178136535474E-02,10.383217370229));
#557 = CARTESIAN_POINT('',(3.590575764589E-02,10.364648735556));
#558 = CARTESIAN_POINT('',(0.,10.364648735556));
#559 = ( GEOMETRIC_REPRESENTATION_CONTEXT(2) 
PARAMETRIC_REPRESENTATION_CONTEXT() REPRESENTATION_CONTEXT('2D SPACE',''
  ) );
#560 = PCURVE('',#561,#566);
#561 = CYLINDRICAL_SURFACE('',#562,4.);
#562 = AXIS2_PLACEMENT_3D('',#563,#564,#565);
#563 = CARTESIAN_POINT('',(20.,26.,34.));
#564 = DIRECTION('',(0.,-0.622244125575,-0.782823254756));
#565 = DIRECTION('',(0.,-0.782823254756,0.622244125575));
#566 = DEFINITIONAL_REPRESENTATION('',(#567),#585);
#567 = B_SPLINE_CURVE_WITH_KNOTS('',6,(#568,#569,#570,#571,#572,#573,
    #574,#575,#576,#577,#578,#579,#580,#581,#582,#583,#584),
  .UNSPECIFIED.,.F.,.F.,(7,5,5,7),(0.,0.421048646579,0.628606999459,1.),
  .UNSPECIFIED.);
#568 = CARTESIAN_POINT('',(5.306588606373,21.289005034794));
#569 = CARTESIAN_POINT('',(5.363064329899,21.35820276171));
#570 = CARTESIAN_POINT('',(5.421844190028,21.419956559456));
#571 = CARTESIAN_POINT('',(5.482870266304,21.473741899857));
#572 = CARTESIAN_POINT('',(5.546116446322,21.519588907497));
#573 = CARTESIAN_POINT('',(5.611572431708,21.558013718672));
#574 = CARTESIAN_POINT('',(5.712593080284,21.605391565859));
#575 = CARTESIAN_POINT('',(5.746465823356,21.619400016));
#576 = CARTESIAN_POINT('',(5.780826453274,21.63185163388));
#577 = CARTESIAN_POINT('',(5.815647226961,21.642847644545));
#578 = CARTESIAN_POINT('',(5.850900789722,21.652498809889));
#579 = CARTESIAN_POINT('',(5.950364408862,21.675966203421));
#580 = CARTESIAN_POINT('',(6.015530210615,21.687072273552));
#581 = CARTESIAN_POINT('',(6.081714974098,21.694782492614));
#582 = CARTESIAN_POINT('',(6.148595287328,21.699715654856));
#583 = CARTESIAN_POINT('',(6.215862011594,21.702186795146));
#584 = CARTESIAN_POINT('',(6.28318530718,21.702186795146));
#585 = ( GEOMETRIC_REPRESENTATION_CONTEXT(2) 
PARAMETRIC_REPRESENTATION_CONTEXT() REPRESENTATION_CONTEXT('2D SPACE',''
  ) );
#586 = ORIENTED_EDGE('',*,*,#587,.F.);
#587 = EDGE_CURVE('',#217,#518,#588,.T.);
#588 = SEAM_CURVE('',#589,(#593,#600),.PCURVE_S1.);
#589 = LINE('',#590,#591);
#590 = CARTESIAN_POINT('',(20.,-1.,19.5));
#591 = VECTOR('',#592,1.);
#592 = DIRECTION('',(0.,1.,0.));
#593 = PCURVE('',#233,#594);
#594 = DEFINITIONAL_REPRESENTATION('',(#595),#599);
#595 = LINE('',#596,#597);
#596 = CARTESIAN_POINT('',(6.28318530718,-0.));
#597 = VECTOR('',#598,1.);
#598 = DIRECTION('',(0.,1.));
#599 = ( GEOMETRIC_REPRESENTATION_CONTEXT(2) 
PARAMETRIC_REPRESENTATION_CONTEXT() REPRESENTATION_CONTEXT('2D SPACE',''
  ) );
#600 = PCURVE('',#233,#601);
#601 = DEFINITIONAL_REPRESENTATION('',(#602),#606);
#602 = LINE('',#603,#604);
#603 = CARTESIAN_POINT('',(0.,-0.));
#604 = VECTOR('',#605,1.);
#605 = DIRECTION('',(0.,1.));
#606 = ( GEOMETRIC_REPRESENTATION_CONTEXT(2) 
PARAMETRIC_REPRESENTATION_CONTEXT() REPRESENTATION_CONTEXT('2D SPACE',''
  ) );
#607 = ORIENTED_EDGE('',*,*,#216,.T.);
#608 = ORIENTED_EDGE('',*,*,#587,.T.);
#609 = ORIENTED_EDGE('',*,*,#610,.T.);
#610 = EDGE_CURVE('',#518,#489,#611,.T.);
#611 = SURFACE_CURVE('',#612,(#630,#651),.PCURVE_S1.);
#612 = B_SPLINE_CURVE_WITH_KNOTS('',6,(#613,#614,#615,#616,#617,#618,
    #619,#620,#621,#622,#623,#624,#625,#626,#627,#628,#629),
  .UNSPECIFIED.,.F.,.F.,(7,5,5,7),(0.,0.375203126374,0.582602021391,1.),
  .UNSPECIFIED.);
#613 = CARTESIAN_POINT('',(20.,9.364648735556,19.5));
#614 = CARTESIAN_POINT('',(19.72794022903,9.364648735556,19.5));
#615 = CARTESIAN_POINT('',(19.456117968831,9.383600876483,
    19.488157389769));
#616 = CARTESIAN_POINT('',(19.188154575485,9.421441091985,
    19.464510714637));
#617 = CARTESIAN_POINT('',(18.927569018482,9.477501801928,19.43001015711
    ));
#618 = CARTESIAN_POINT('',(18.677470369081,9.550555269722,
    19.386454707266));
#619 = CARTESIAN_POINT('',(18.309183991994,9.687529527666,
    19.308153445934));
#620 = CARTESIAN_POINT('',(18.181949176966,9.740951243236,19.27816333154
    ));
#621 = CARTESIAN_POINT('',(18.058883429428,9.798779237628,
    19.246396015858));
#622 = CARTESIAN_POINT('',(17.940229297097,9.860738298377,
    19.213211090535));
#623 = CARTESIAN_POINT('',(17.826174718255,9.926531123053,
    19.178973128391));
#624 = CARTESIAN_POINT('',(17.496843471498,10.13531793823,
    19.073722932962));
#625 = CARTESIAN_POINT('',(17.296268069422,10.288863153312,
    19.000660389476));
#626 = CARTESIAN_POINT('',(17.115405695594,10.45426193687,
    18.927508560191));
#627 = CARTESIAN_POINT('',(16.953903269655,10.629376296342,
    18.856599093894));
#628 = CARTESIAN_POINT('',(16.810990978173,10.812049542701,
    18.789680122398));
#629 = CARTESIAN_POINT('',(16.685612599294,11.0000006,18.727914696103));
#630 = PCURVE('',#233,#631);
#631 = DEFINITIONAL_REPRESENTATION('',(#632),#650);
#632 = B_SPLINE_CURVE_WITH_KNOTS('',6,(#633,#634,#635,#636,#637,#638,
    #639,#640,#641,#642,#643,#644,#645,#646,#647,#648,#649),
  .UNSPECIFIED.,.F.,.F.,(7,5,5,7),(0.,0.375203126374,0.582602021391,1.),
  .UNSPECIFIED.);
#633 = CARTESIAN_POINT('',(6.28318530718,10.364648735556));
#634 = CARTESIAN_POINT('',(6.24691067105,10.364648735556));
#635 = CARTESIAN_POINT('',(6.210667657567,10.383600876483));
#636 = CARTESIAN_POINT('',(6.17485351453,10.421441091985));
#637 = CARTESIAN_POINT('',(6.139851134307,10.477501801928));
#638 = CARTESIAN_POINT('',(6.106025943909,10.550555269722));
#639 = CARTESIAN_POINT('',(6.055823519342,10.687529527666));
#640 = CARTESIAN_POINT('',(6.03839821495,10.740951243236));
#641 = CARTESIAN_POINT('',(6.021457035168,10.798779237628));
#642 = CARTESIAN_POINT('',(6.005033988087,10.860738298377));
#643 = CARTESIAN_POINT('',(5.989158772375,10.926531123053));
#644 = CARTESIAN_POINT('',(5.943060004259,11.13531793823));
#645 = CARTESIAN_POINT('',(5.914620385641,11.288863153312));
#646 = CARTESIAN_POINT('',(5.888628037541,11.45426193687));
#647 = CARTESIAN_POINT('',(5.865121203686,11.629376296342));
#648 = CARTESIAN_POINT('',(5.84408484202,11.812049542701));
#649 = CARTESIAN_POINT('',(5.825449293779,12.0000006));
#650 = ( GEOMETRIC_REPRESENTATION_CONTEXT(2) 
PARAMETRIC_REPRESENTATION_CONTEXT() REPRESENTATION_CONTEXT('2D SPACE',''
  ) );
#651 = PCURVE('',#561,#652);
#652 = DEFINITIONAL_REPRESENTATION('',(#653),#671);
#653 = B_SPLINE_CURVE_WITH_KNOTS('',6,(#654,#655,#656,#657,#658,#659,
    #660,#661,#662,#663,#664,#665,#666,#667,#668,#669,#670),
  .UNSPECIFIED.,.F.,.F.,(7,5,5,7),(0.,0.375203126374,0.582602021391,1.),
  .UNSPECIFIED.);
#654 = CARTESIAN_POINT('',(0.,21.702186795146));
#655 = CARTESIAN_POINT('',(6.801494274245E-02,21.702186795146));
#656 = CARTESIAN_POINT('',(0.13597055045,21.699664607474));
#657 = CARTESIAN_POINT('',(0.203527554569,21.694629922858));
#658 = CARTESIAN_POINT('',(0.270368505477,21.686754314155));
#659 = CARTESIAN_POINT('',(0.33616084842,21.675393441976));
#660 = CARTESIAN_POINT('',(0.436146781193,21.651458062862));
#661 = CARTESIAN_POINT('',(0.471333463116,21.641693673132));
#662 = CARTESIAN_POINT('',(0.506085661647,21.630578736784));
#663 = CARTESIAN_POINT('',(0.54037644644,21.618003006457));
#664 = CARTESIAN_POINT('',(0.574178506185,21.60386608076));
#665 = CARTESIAN_POINT('',(0.674450034676,21.556342012067));
#666 = CARTESIAN_POINT('',(0.739262380171,21.517994462065));
#667 = CARTESIAN_POINT('',(0.801901435362,21.472340993711));
#668 = CARTESIAN_POINT('',(0.862358416662,21.418886691425));
#669 = CARTESIAN_POINT('',(0.920608788215,21.35760506405));
#670 = CARTESIAN_POINT('',(0.976596700806,21.289005034794));
#671 = ( GEOMETRIC_REPRESENTATION_CONTEXT(2) 
PARAMETRIC_REPRESENTATION_CONTEXT() REPRESENTATION_CONTEXT('2D SPACE',''
  ) );
#672 = ADVANCED_FACE('',(#673),#335,.T.);
#673 = FACE_BOUND('',#674,.T.);
#674 = EDGE_LOOP('',(#675,#698,#726,#747));
#675 = ORIENTED_EDGE('',*,*,#676,.F.);
#676 = EDGE_CURVE('',#677,#321,#679,.T.);
#677 = VERTEX_POINT('',#678);
#678 = CARTESIAN_POINT('',(3.5,23.331415712958,21.770834875401));
#679 = SURFACE_CURVE('',#680,(#684,#691),.PCURVE_S1.);
#680 = LINE('',#681,#682);
#681 = CARTESIAN_POINT('',(3.5,23.331415712958,21.770834875401));
#682 = VECTOR('',#683,1.);
#683 = DIRECTION('',(0.,0.866025403784,0.5));
#684 = PCURVE('',#335,#685);
#685 = DEFINITIONAL_REPRESENTATION('',(#686),#690);
#686 = LINE('',#687,#688);
#687 = CARTESIAN_POINT('',(0.,0.));
#688 = VECTOR('',#689,1.);
#689 = DIRECTION('',(0.,1.));
#690 = ( GEOMETRIC_REPRESENTATION_CONTEXT(2) 
PARAMETRIC_REPRESENTATION_CONTEXT() REPRESENTATION_CONTEXT('2D SPACE',''
  ) );
#691 = PCURVE('',#361,#692);
#692 = DEFINITIONAL_REPRESENTATION('',(#693),#697);
#693 = LINE('',#694,#695);
#694 = CARTESIAN_POINT('',(0.,0.));
#695 = VECTOR('',#696,1.);
#696 = DIRECTION('',(0.,-1.));
#697 = ( GEOMETRIC_REPRESENTATION_CONTEXT(2) 
PARAMETRIC_REPRESENTATION_CONTEXT() REPRESENTATION_CONTEXT('2D SPACE',''
  ) );
#698 = ORIENTED_EDGE('',*,*,#699,.T.);
#699 = EDGE_CURVE('',#677,#700,#702,.T.);
#700 = VERTEX_POINT('',#701);
#701 = CARTESIAN_POINT('',(36.5,23.331415712958,21.770834875401));
#702 = SURFACE_CURVE('',#703,(#707,#714),.PCURVE_S1.);
#703 = LINE('',#704,#705);
#704 = CARTESIAN_POINT('',(3.5,23.331415712958,21.770834875401));
#705 = VECTOR('',#706,1.);
#706 = DIRECTION('',(1.,0.,0.));
#707 = PCURVE('',#335,#708);
#708 = DEFINITIONAL_REPRESENTATION('',(#709),#713);
#709 = LINE('',#710,#711);
#710 = CARTESIAN_POINT('',(0.,0.));
#711 = VECTOR('',#712,1.);
#712 = DIRECTION('',(1.,0.));
#713 = ( GEOMETRIC_REPRESENTATION_CONTEXT(2) 
PARAMETRIC_REPRESENTATION_CONTEXT() REPRESENTATION_CONTEXT('2D SPACE',''
  ) );
#714 = PCURVE('',#715,#720);
#715 = PLANE('',#716);
#716 = AXIS2_PLACEMENT_3D('',#717,#718,#719);
#717 = CARTESIAN_POINT('',(3.5,23.331415712958,21.770834875401));
#718 = DIRECTION('',(0.,0.866025403784,0.5));
#719 = DIRECTION('',(0.,-0.5,0.866025403784));
#720 = DEFINITIONAL_REPRESENTATION('',(#721),#725);
#721 = LINE('',#722,#723);
#722 = CARTESIAN_POINT('',(0.,0.));
#723 = VECTOR('',#724,1.);
#724 = DIRECTION('',(0.,1.));
#725 = ( GEOMETRIC_REPRESENTATION_CONTEXT(2) 
PARAMETRIC_REPRESENTATION_CONTEXT() REPRESENTATION_CONTEXT('2D SPACE',''
  ) );
#726 = ORIENTED_EDGE('',*,*,#727,.T.);
#727 = EDGE_CURVE('',#700,#319,#728,.T.);
#728 = SURFACE_CURVE('',#729,(#733,#740),.PCURVE_S1.);
#729 = LINE('',#730,#731);
#730 = CARTESIAN_POINT('',(36.5,23.331415712958,21.770834875401));
#731 = VECTOR('',#732,1.);
#732 = DIRECTION('',(0.,0.866025403784,0.5));
#733 = PCURVE('',#335,#734);
#734 = DEFINITIONAL_REPRESENTATION('',(#735),#739);
#735 = LINE('',#736,#737);
#736 = CARTESIAN_POINT('',(33.,0.));
#737 = VECTOR('',#738,1.);
#738 = DIRECTION('',(0.,1.));
#739 = ( GEOMETRIC_REPRESENTATION_CONTEXT(2) 
PARAMETRIC_REPRESENTATION_CONTEXT() REPRESENTATION_CONTEXT('2D SPACE',''
  ) );
#740 = PCURVE('',#411,#741);
#741 = DEFINITIONAL_REPRESENTATION('',(#742),#746);
#742 = LINE('',#743,#744);
#743 = CARTESIAN_POINT('',(0.,0.));
#744 = VECTOR('',#745,1.);
#745 = DIRECTION('',(0.,-1.));
#746 = ( GEOMETRIC_REPRESENTATION_CONTEXT(2) 
PARAMETRIC_REPRESENTATION_CONTEXT() REPRESENTATION_CONTEXT('2D SPACE',''
  ) );
#747 = ORIENTED_EDGE('',*,*,#318,.T.);
#748 = ADVANCED_FACE('',(#749),#411,.F.);
#749 = FACE_BOUND('',#750,.F.);
#750 = EDGE_LOOP('',(#751,#781,#802,#803,#804));
#751 = ORIENTED_EDGE('',*,*,#752,.F.);
#752 = EDGE_CURVE('',#753,#755,#757,.T.);
#753 = VERTEX_POINT('',#754);
#754 = CARTESIAN_POINT('',(36.5,16.831415712958,33.029165124599));
#755 = VERTEX_POINT('',#756);
#756 = CARTESIAN_POINT('',(36.5,39.348076211353,46.029165124599));
#757 = SURFACE_CURVE('',#758,(#762,#769),.PCURVE_S1.);
#758 = LINE('',#759,#760);
#759 = CARTESIAN_POINT('',(36.5,16.831415712958,33.029165124599));
#760 = VECTOR('',#761,1.);
#761 = DIRECTION('',(0.,0.866025403784,0.5));
#762 = PCURVE('',#411,#763);
#763 = DEFINITIONAL_REPRESENTATION('',(#764),#768);
#764 = LINE('',#765,#766);
#765 = CARTESIAN_POINT('',(13.,0.));
#766 = VECTOR('',#767,1.);
#767 = DIRECTION('',(0.,-1.));
#768 = ( GEOMETRIC_REPRESENTATION_CONTEXT(2) 
PARAMETRIC_REPRESENTATION_CONTEXT() REPRESENTATION_CONTEXT('2D SPACE',''
  ) );
#769 = PCURVE('',#770,#775);
#770 = PLANE('',#771);
#771 = AXIS2_PLACEMENT_3D('',#772,#773,#774);
#772 = CARTESIAN_POINT('',(3.5,16.831415712958,33.029165124599));
#773 = DIRECTION('',(0.,-0.5,0.866025403784));
#774 = DIRECTION('',(1.,0.,0.));
#775 = DEFINITIONAL_REPRESENTATION('',(#776),#780);
#776 = LINE('',#777,#778);
#777 = CARTESIAN_POINT('',(33.,0.));
#778 = VECTOR('',#779,1.);
#779 = DIRECTION('',(0.,1.));
#780 = ( GEOMETRIC_REPRESENTATION_CONTEXT(2) 
PARAMETRIC_REPRESENTATION_CONTEXT() REPRESENTATION_CONTEXT('2D SPACE',''
  ) );
#781 = ORIENTED_EDGE('',*,*,#782,.F.);
#782 = EDGE_CURVE('',#700,#753,#783,.T.);
#783 = SURFACE_CURVE('',#784,(#788,#795),.PCURVE_S1.);
#784 = LINE('',#785,#786);
#785 = CARTESIAN_POINT('',(36.5,23.331415712958,21.770834875401));
#786 = VECTOR('',#787,1.);
#787 = DIRECTION('',(0.,-0.5,0.866025403784));
#788 = PCURVE('',#411,#789);
#789 = DEFINITIONAL_REPRESENTATION('',(#790),#794);
#790 = LINE('',#791,#792);
#791 = CARTESIAN_POINT('',(0.,0.));
#792 = VECTOR('',#793,1.);
#793 = DIRECTION('',(1.,0.));
#794 = ( GEOMETRIC_REPRESENTATION_CONTEXT(2) 
PARAMETRIC_REPRESENTATION_CONTEXT() REPRESENTATION_CONTEXT('2D SPACE',''
  ) );
#795 = PCURVE('',#715,#796);
#796 = DEFINITIONAL_REPRESENTATION('',(#797),#801);
#797 = LINE('',#798,#799);
#798 = CARTESIAN_POINT('',(0.,33.));
#799 = VECTOR('',#800,1.);
#800 = DIRECTION('',(1.,0.));
#801 = ( GEOMETRIC_REPRESENTATION_CONTEXT(2) 
PARAMETRIC_REPRESENTATION_CONTEXT() REPRESENTATION_CONTEXT('2D SPACE',''
  ) );
#802 = ORIENTED_EDGE('',*,*,#727,.T.);
#803 = ORIENTED_EDGE('',*,*,#398,.T.);
#804 = ORIENTED_EDGE('',*,*,#805,.T.);
#805 = EDGE_CURVE('',#373,#755,#806,.T.);
#806 = SURFACE_CURVE('',#807,(#811,#818),.PCURVE_S1.);
#807 = LINE('',#808,#809);
#808 = CARTESIAN_POINT('',(36.5,45.848076211353,34.770834875401));
#809 = VECTOR('',#810,1.);
#810 = DIRECTION('',(0.,-0.5,0.866025403784));
#811 = PCURVE('',#411,#812);
#812 = DEFINITIONAL_REPRESENTATION('',(#813),#817);
#813 = LINE('',#814,#815);
#814 = CARTESIAN_POINT('',(1.7763568394E-15,-26.));
#815 = VECTOR('',#816,1.);
#816 = DIRECTION('',(1.,0.));
#817 = ( GEOMETRIC_REPRESENTATION_CONTEXT(2) 
PARAMETRIC_REPRESENTATION_CONTEXT() REPRESENTATION_CONTEXT('2D SPACE',''
  ) );
#818 = PCURVE('',#387,#819);
#819 = DEFINITIONAL_REPRESENTATION('',(#820),#824);
#820 = LINE('',#821,#822);
#821 = CARTESIAN_POINT('',(0.,33.));
#822 = VECTOR('',#823,1.);
#823 = DIRECTION('',(1.,0.));
#824 = ( GEOMETRIC_REPRESENTATION_CONTEXT(2) 
PARAMETRIC_REPRESENTATION_CONTEXT() REPRESENTATION_CONTEXT('2D SPACE',''
  ) );
#825 = ADVANCED_FACE('',(#826),#387,.F.);
#826 = FACE_BOUND('',#827,.F.);
#827 = EDGE_LOOP('',(#828,#829,#830,#853));
#828 = ORIENTED_EDGE('',*,*,#805,.F.);
#829 = ORIENTED_EDGE('',*,*,#372,.T.);
#830 = ORIENTED_EDGE('',*,*,#831,.T.);
#831 = EDGE_CURVE('',#347,#832,#834,.T.);
#832 = VERTEX_POINT('',#833);
#833 = CARTESIAN_POINT('',(3.5,39.348076211353,46.029165124599));
#834 = SURFACE_CURVE('',#835,(#839,#846),.PCURVE_S1.);
#835 = LINE('',#836,#837);
#836 = CARTESIAN_POINT('',(3.5,45.848076211353,34.770834875401));
#837 = VECTOR('',#838,1.);
#838 = DIRECTION('',(0.,-0.5,0.866025403784));
#839 = PCURVE('',#387,#840);
#840 = DEFINITIONAL_REPRESENTATION('',(#841),#845);
#841 = LINE('',#842,#843);
#842 = CARTESIAN_POINT('',(0.,0.));
#843 = VECTOR('',#844,1.);
#844 = DIRECTION('',(1.,0.));
#845 = ( GEOMETRIC_REPRESENTATION_CONTEXT(2) 
PARAMETRIC_REPRESENTATION_CONTEXT() REPRESENTATION_CONTEXT('2D SPACE',''
  ) );
#846 = PCURVE('',#361,#847);
#847 = DEFINITIONAL_REPRESENTATION('',(#848),#852);
#848 = LINE('',#849,#850);
#849 = CARTESIAN_POINT('',(1.7763568394E-15,-26.));
#850 = VECTOR('',#851,1.);
#851 = DIRECTION('',(1.,0.));
#852 = ( GEOMETRIC_REPRESENTATION_CONTEXT(2) 
PARAMETRIC_REPRESENTATION_CONTEXT() REPRESENTATION_CONTEXT('2D SPACE',''
  ) );
#853 = ORIENTED_EDGE('',*,*,#854,.T.);
#854 = EDGE_CURVE('',#832,#755,#855,.T.);
#855 = SURFACE_CURVE('',#856,(#860,#867),.PCURVE_S1.);
#856 = LINE('',#857,#858);
#857 = CARTESIAN_POINT('',(3.5,39.348076211353,46.029165124599));
#858 = VECTOR('',#859,1.);
#859 = DIRECTION('',(1.,0.,0.));
#860 = PCURVE('',#387,#861);
#861 = DEFINITIONAL_REPRESENTATION('',(#862),#866);
#862 = LINE('',#863,#864);
#863 = CARTESIAN_POINT('',(13.,0.));
#864 = VECTOR('',#865,1.);
#865 = DIRECTION('',(0.,1.));
#866 = ( GEOMETRIC_REPRESENTATION_CONTEXT(2) 
PARAMETRIC_REPRESENTATION_CONTEXT() REPRESENTATION_CONTEXT('2D SPACE',''
  ) );
#867 = PCURVE('',#770,#868);
#868 = DEFINITIONAL_REPRESENTATION('',(#869),#873);
#869 = LINE('',#870,#871);
#870 = CARTESIAN_POINT('',(0.,26.));
#871 = VECTOR('',#872,1.);
#872 = DIRECTION('',(1.,0.));
#873 = ( GEOMETRIC_REPRESENTATION_CONTEXT(2) 
PARAMETRIC_REPRESENTATION_CONTEXT() REPRESENTATION_CONTEXT('2D SPACE',''
  ) );
#874 = ADVANCED_FACE('',(#875),#361,.T.);
#875 = FACE_BOUND('',#876,.T.);
#876 = EDGE_LOOP('',(#877,#900,#921,#922,#923));
#877 = ORIENTED_EDGE('',*,*,#878,.F.);
#878 = EDGE_CURVE('',#879,#832,#881,.T.);
#879 = VERTEX_POINT('',#880);
#880 = CARTESIAN_POINT('',(3.5,16.831415712958,33.029165124599));
#881 = SURFACE_CURVE('',#882,(#886,#893),.PCURVE_S1.);
#882 = LINE('',#883,#884);
#883 = CARTESIAN_POINT('',(3.5,16.831415712958,33.029165124599));
#884 = VECTOR('',#885,1.);
#885 = DIRECTION('',(0.,0.866025403784,0.5));
#886 = PCURVE('',#361,#887);
#887 = DEFINITIONAL_REPRESENTATION('',(#888),#892);
#888 = LINE('',#889,#890);
#889 = CARTESIAN_POINT('',(13.,0.));
#890 = VECTOR('',#891,1.);
#891 = DIRECTION('',(0.,-1.));
#892 = ( GEOMETRIC_REPRESENTATION_CONTEXT(2) 
PARAMETRIC_REPRESENTATION_CONTEXT() REPRESENTATION_CONTEXT('2D SPACE',''
  ) );
#893 = PCURVE('',#770,#894);
#894 = DEFINITIONAL_REPRESENTATION('',(#895),#899);
#895 = LINE('',#896,#897);
#896 = CARTESIAN_POINT('',(0.,0.));
#897 = VECTOR('',#898,1.);
#898 = DIRECTION('',(0.,1.));
#899 = ( GEOMETRIC_REPRESENTATION_CONTEXT(2) 
PARAMETRIC_REPRESENTATION_CONTEXT() REPRESENTATION_CONTEXT('2D SPACE',''
  ) );
#900 = ORIENTED_EDGE('',*,*,#901,.F.);
#901 = EDGE_CURVE('',#677,#879,#902,.T.);
#902 = SURFACE_CURVE('',#903,(#907,#914),.PCURVE_S1.);
#903 = LINE('',#904,#905);
#904 = CARTESIAN_POINT('',(3.5,23.331415712958,21.770834875401));
#905 = VECTOR('',#906,1.);
#906 = DIRECTION('',(0.,-0.5,0.866025403784));
#907 = PCURVE('',#361,#908);
#908 = DEFINITIONAL_REPRESENTATION('',(#909),#913);
#909 = LINE('',#910,#911);
#910 = CARTESIAN_POINT('',(0.,0.));
#911 = VECTOR('',#912,1.);
#912 = DIRECTION('',(1.,0.));
#913 = ( GEOMETRIC_REPRESENTATION_CONTEXT(2) 
PARAMETRIC_REPRESENTATION_CONTEXT() REPRESENTATION_CONTEXT('2D SPACE',''
  ) );
#914 = PCURVE('',#715,#915);
#915 = DEFINITIONAL_REPRESENTATION('',(#916),#920);
#916 = LINE('',#917,#918);
#917 = CARTESIAN_POINT('',(0.,0.));
#918 = VECTOR('',#919,1.);
#919 = DIRECTION('',(1.,0.));
#920 = ( GEOMETRIC_REPRESENTATION_CONTEXT(2) 
PARAMETRIC_REPRESENTATION_CONTEXT() REPRESENTATION_CONTEXT('2D SPACE',''
  ) );
#921 = ORIENTED_EDGE('',*,*,#676,.T.);
#922 = ORIENTED_EDGE('',*,*,#346,.T.);
#923 = ORIENTED_EDGE('',*,*,#831,.T.);
#924 = ADVANCED_FACE('',(#925),#505,.F.);
#925 = FACE_BOUND('',#926,.F.);
#926 = EDGE_LOOP('',(#927,#976));
#927 = ORIENTED_EDGE('',*,*,#928,.F.);
#928 = EDGE_CURVE('',#487,#489,#929,.T.);
#929 = SURFACE_CURVE('',#930,(#935,#942),.PCURVE_S1.);
#930 = ELLIPSE('',#931,6.428345139139,4.);
#931 = AXIS2_PLACEMENT_3D('',#932,#933,#934);
#932 = CARTESIAN_POINT('',(20.,11.,15.129032258065));
#933 = DIRECTION('',(0.,1.,0.));
#934 = DIRECTION('',(0.,0.,-1.));
#935 = PCURVE('',#505,#936);
#936 = DEFINITIONAL_REPRESENTATION('',(#937),#941);
#937 = ELLIPSE('',#938,6.428345139139,4.);
#938 = AXIS2_PLACEMENT_2D('',#939,#940);
#939 = CARTESIAN_POINT('',(3.129032258065,0.));
#940 = DIRECTION('',(-1.,0.));
#941 = ( GEOMETRIC_REPRESENTATION_CONTEXT(2) 
PARAMETRIC_REPRESENTATION_CONTEXT() REPRESENTATION_CONTEXT('2D SPACE',''
  ) );
#942 = PCURVE('',#561,#943);
#943 = DEFINITIONAL_REPRESENTATION('',(#944),#975);
#944 = B_SPLINE_CURVE_WITH_KNOTS('',8,(#945,#946,#947,#948,#949,#950,
    #951,#952,#953,#954,#955,#956,#957,#958,#959,#960,#961,#962,#963,
    #964,#965,#966,#967,#968,#969,#970,#971,#972,#973,#974),
  .UNSPECIFIED.,.F.,.F.,(9,7,7,7,9),(3.561089975431,4.922137641305,
    6.963709140117,7.984494889523,9.005280638928),.UNSPECIFIED.);
#945 = CARTESIAN_POINT('',(5.863687985339,19.51036419546));
#946 = CARTESIAN_POINT('',(5.693557027104,19.859072401783));
#947 = CARTESIAN_POINT('',(5.52342606887,20.35981240076));
#948 = CARTESIAN_POINT('',(5.353295110636,20.997198293118));
#949 = CARTESIAN_POINT('',(5.183164152402,21.746480226107));
#950 = CARTESIAN_POINT('',(5.013033194168,22.574894420646));
#951 = CARTESIAN_POINT('',(4.842902235933,23.444663580469));
#952 = CARTESIAN_POINT('',(4.672771277699,24.316702193316));
#953 = CARTESIAN_POINT('',(4.247443882113,26.410149795613));
#954 = CARTESIAN_POINT('',(3.99224744476,27.58823411159));
#955 = CARTESIAN_POINT('',(3.737051007396,28.563671528827));
#956 = CARTESIAN_POINT('',(3.481854570065,29.222703672393));
#957 = CARTESIAN_POINT('',(3.226658132691,29.488146298463));
#958 = CARTESIAN_POINT('',(2.971461695357,29.342525254266));
#959 = CARTESIAN_POINT('',(2.716265258004,28.825610766986));
#960 = CARTESIAN_POINT('',(2.333470601977,27.613568789424));
#961 = CARTESIAN_POINT('',(2.205872383301,27.136776577282));
#962 = CARTESIAN_POINT('',(2.078274164625,26.597230049349));
#963 = CARTESIAN_POINT('',(1.95067594595,26.007479000229));
#964 = CARTESIAN_POINT('',(1.823077727274,25.382083008816));
#965 = CARTESIAN_POINT('',(1.695479508598,24.73685929052));
#966 = CARTESIAN_POINT('',(1.567881289923,24.088027047732));
#967 = CARTESIAN_POINT('',(1.312684852571,22.814734668333));
#968 = CARTESIAN_POINT('',(1.185086633895,22.1902746821));
#969 = CARTESIAN_POINT('',(1.05748841522,21.593795212152));
#970 = CARTESIAN_POINT('',(0.929890196544,21.040669717121));
#971 = CARTESIAN_POINT('',(0.802291977868,20.545021019954));
#972 = CARTESIAN_POINT('',(0.674693759192,20.118944028409));
#973 = CARTESIAN_POINT('',(0.547095540517,19.771895350202));
#974 = CARTESIAN_POINT('',(0.419497321841,19.51036419546));
#975 = ( GEOMETRIC_REPRESENTATION_CONTEXT(2) 
PARAMETRIC_REPRESENTATION_CONTEXT() REPRESENTATION_CONTEXT('2D SPACE',''
  ) );
#976 = ORIENTED_EDGE('',*,*,#486,.T.);
#977 = ADVANCED_FACE('',(#978),#561,.F.);
#978 = FACE_BOUND('',#979,.F.);
#979 = EDGE_LOOP('',(#980,#1031,#1052,#1053,#1054,#1055));
#980 = ORIENTED_EDGE('',*,*,#981,.F.);
#981 = EDGE_CURVE('',#982,#982,#984,.T.);
#982 = VERTEX_POINT('',#983);
#983 = CARTESIAN_POINT('',(20.,18.214469572905,30.633645569567));
#984 = SURFACE_CURVE('',#985,(#990,#1024),.PCURVE_S1.);
#985 = ELLIPSE('',#986,4.299730574397,4.);
#986 = AXIS2_PLACEMENT_3D('',#987,#988,#989);
#987 = CARTESIAN_POINT('',(20.,20.364334860103,26.90996966271));
#988 = DIRECTION('',(0.,0.866025403784,0.5));
#989 = DIRECTION('',(0.,0.5,-0.866025403784));
#990 = PCURVE('',#561,#991);
#991 = DEFINITIONAL_REPRESENTATION('',(#992),#1023);
#992 = B_SPLINE_CURVE_WITH_KNOTS('',8,(#993,#994,#995,#996,#997,#998,
    #999,#1000,#1001,#1002,#1003,#1004,#1005,#1006,#1007,#1008,#1009,
    #1010,#1011,#1012,#1013,#1014,#1015,#1016,#1017,#1018,#1019,#1020,
    #1021,#1022),.UNSPECIFIED.,.F.,.F.,(9,7,7,7,9),(3.14159265359,
    4.712388980385,7.068583470577,8.246680715673,9.424777960769),
  .UNSPECIFIED.);
#993 = CARTESIAN_POINT('',(6.28318530718,7.479761104643));
#994 = CARTESIAN_POINT('',(6.08683576633,7.479761104643));
#995 = CARTESIAN_POINT('',(5.890486225482,7.549255480983));
#996 = CARTESIAN_POINT('',(5.69413668463,7.688243643297));
#997 = CARTESIAN_POINT('',(5.497787143784,7.891012384505));
#998 = CARTESIAN_POINT('',(5.301437602932,8.146123686038));
#999 = CARTESIAN_POINT('',(5.105088062084,8.437619752929));
#1000 = CARTESIAN_POINT('',(4.908738521234,8.747309989215));
#1001 = CARTESIAN_POINT('',(4.417864669111,9.521535396095));
#1002 = CARTESIAN_POINT('',(4.12334035784,9.986072323554));
#1003 = CARTESIAN_POINT('',(3.828816046559,10.389191719161));
#1004 = CARTESIAN_POINT('',(3.534291735295,10.669563549658));
#1005 = CARTESIAN_POINT('',(3.239767424009,10.782597879086));
#1006 = CARTESIAN_POINT('',(2.945243112744,10.718662697271));
#1007 = CARTESIAN_POINT('',(2.650718801466,10.500752599106));
#1008 = CARTESIAN_POINT('',(2.208932334555,10.008038567271));
#1009 = CARTESIAN_POINT('',(2.061670178918,9.816159324892));
#1010 = CARTESIAN_POINT('',(1.91440802328,9.602066469309));
#1011 = CARTESIAN_POINT('',(1.767145867643,9.37246519947));
#1012 = CARTESIAN_POINT('',(1.619883712007,9.134965644198));
#1013 = CARTESIAN_POINT('',(1.47262155637,8.897550784688));
#1014 = CARTESIAN_POINT('',(1.325359400733,8.668004201767));
#1015 = CARTESIAN_POINT('',(1.030835089459,8.238829597587));
#1016 = CARTESIAN_POINT('',(0.883572933822,8.039201733398));
#1017 = CARTESIAN_POINT('',(0.736310778183,7.86162357432));
#1018 = CARTESIAN_POINT('',(0.589048622546,7.712496754617));
#1019 = CARTESIAN_POINT('',(0.441786466911,7.597032211226));
#1020 = CARTESIAN_POINT('',(0.294524311273,7.518851794492));
#1021 = CARTESIAN_POINT('',(0.147262155637,7.479761104643));
#1022 = CARTESIAN_POINT('',(6.217248937901E-15,7.479761104643));
#1023 = ( GEOMETRIC_REPRESENTATION_CONTEXT(2) 
PARAMETRIC_REPRESENTATION_CONTEXT() REPRESENTATION_CONTEXT('2D SPACE',''
  ) );
#1024 = PCURVE('',#715,#1025);
#1025 = DEFINITIONAL_REPRESENTATION('',(#1026),#1030);
#1026 = ELLIPSE('',#1027,4.299730574397,4.);
#1027 = AXIS2_PLACEMENT_2D('',#1028,#1029);
#1028 = CARTESIAN_POINT('',(5.93416170571,16.5));
#1029 = DIRECTION('',(-1.,0.));
#1030 = ( GEOMETRIC_REPRESENTATION_CONTEXT(2) 
PARAMETRIC_REPRESENTATION_CONTEXT() REPRESENTATION_CONTEXT('2D SPACE',''
  ) );
#1031 = ORIENTED_EDGE('',*,*,#1032,.T.);
#1032 = EDGE_CURVE('',#982,#518,#1033,.T.);
#1033 = SEAM_CURVE('',#1034,(#1038,#1045),.PCURVE_S1.);
#1034 = LINE('',#1035,#1036);
#1035 = CARTESIAN_POINT('',(20.,22.868706980976,36.488976502301));
#1036 = VECTOR('',#1037,1.);
#1037 = DIRECTION('',(-2.465190328816E-32,-0.622244125575,
    -0.782823254756));
#1038 = PCURVE('',#561,#1039);
#1039 = DEFINITIONAL_REPRESENTATION('',(#1040),#1044);
#1040 = LINE('',#1041,#1042);
#1041 = CARTESIAN_POINT('',(0.,-0.));
#1042 = VECTOR('',#1043,1.);
#1043 = DIRECTION('',(0.,1.));
#1044 = ( GEOMETRIC_REPRESENTATION_CONTEXT(2) 
PARAMETRIC_REPRESENTATION_CONTEXT() REPRESENTATION_CONTEXT('2D SPACE',''
  ) );
#1045 = PCURVE('',#561,#1046);
#1046 = DEFINITIONAL_REPRESENTATION('',(#1047),#1051);
#1047 = LINE('',#1048,#1049);
#1048 = CARTESIAN_POINT('',(6.28318530718,-0.));
#1049 = VECTOR('',#1050,1.);
#1050 = DIRECTION('',(0.,1.));
#1051 = ( GEOMETRIC_REPRESENTATION_CONTEXT(2) 
PARAMETRIC_REPRESENTATION_CONTEXT() REPRESENTATION_CONTEXT('2D SPACE',''
  ) );
#1052 = ORIENTED_EDGE('',*,*,#517,.F.);
#1053 = ORIENTED_EDGE('',*,*,#928,.T.);
#1054 = ORIENTED_EDGE('',*,*,#610,.F.);
#1055 = ORIENTED_EDGE('',*,*,#1032,.F.);
#1056 = ADVANCED_FACE('',(#1057,#1083),#715,.T.);
#1057 = FACE_BOUND('',#1058,.T.);
#1058 = EDGE_LOOP('',(#1059,#1060,#1061,#1082));
#1059 = ORIENTED_EDGE('',*,*,#699,.F.);
#1060 = ORIENTED_EDGE('',*,*,#901,.T.);
#1061 = ORIENTED_EDGE('',*,*,#1062,.T.);
#1062 = EDGE_CURVE('',#879,#753,#1063,.T.);
#1063 = SURFACE_CURVE('',#1064,(#1068,#1075),.PCURVE_S1.);
#1064 = LINE('',#1065,#1066);
#1065 = CARTESIAN_POINT('',(3.5,16.831415712958,33.029165124599));
#1066 = VECTOR('',#1067,1.);
#1067 = DIRECTION('',(1.,0.,0.));
#1068 = PCURVE('',#715,#1069);
#1069 = DEFINITIONAL_REPRESENTATION('',(#1070),#1074);
#1070 = LINE('',#1071,#1072);
#1071 = CARTESIAN_POINT('',(13.,0.));
#1072 = VECTOR('',#1073,1.);
#1073 = DIRECTION('',(0.,1.));
#1074 = ( GEOMETRIC_REPRESENTATION_CONTEXT(2) 
PARAMETRIC_REPRESENTATION_CONTEXT() REPRESENTATION_CONTEXT('2D SPACE',''
  ) );
#1075 = PCURVE('',#770,#1076);
#1076 = DEFINITIONAL_REPRESENTATION('',(#1077),#1081);
#1077 = LINE('',#1078,#1079);
#1078 = CARTESIAN_POINT('',(0.,0.));
#1079 = VECTOR('',#1080,1.);
#1080 = DIRECTION('',(1.,0.));
#1081 = ( GEOMETRIC_REPRESENTATION_CONTEXT(2) 
PARAMETRIC_REPRESENTATION_CONTEXT() REPRESENTATION_CONTEXT('2D SPACE',''
  ) );
#1082 = ORIENTED_EDGE('',*,*,#782,.F.);
#1083 = FACE_BOUND('',#1084,.T.);
#1084 = EDGE_LOOP('',(#1085));
#1085 = ORIENTED_EDGE('',*,*,#981,.F.);
#1086 = ADVANCED_FACE('',(#1087),#770,.F.);
#1087 = FACE_BOUND('',#1088,.F.);
#1088 = EDGE_LOOP('',(#1089,#1090,#1091,#1092));
#1089 = ORIENTED_EDGE('',*,*,#878,.F.);
#1090 = ORIENTED_EDGE('',*,*,#1062,.T.);
#1091 = ORIENTED_EDGE('',*,*,#752,.T.);
#1092 = ORIENTED_EDGE('',*,*,#854,.F.);
#1093 = ( GEOMETRIC_REPRESENTATION_CONTEXT(3) 
GLOBAL_UNCERTAINTY_ASSIGNED_CONTEXT((#1097)) 
GLOBAL_UNIT_ASSIGNED_CONTEXT((#1094,#1095,#1096)) REPRESENTATION_CONTEXT
('Context #1','3D Context with UNIT and UNCERTAINTY') );
#1094 = ( LENGTH_UNIT() NAMED_UNIT(*) SI_UNIT(.MILLI.,.METRE.) );
#1095 = ( NAMED_UNIT(*) PLANE_ANGLE_UNIT() SI_UNIT($,.RADIAN.) );
#1096 = ( NAMED_UNIT(*) SI_UNIT($,.STERADIAN.) SOLID_ANGLE_UNIT() );
#1097 = UNCERTAINTY_MEASURE_WITH_UNIT(LENGTH_MEASURE(1.E-07),#1094,
  'distance_accuracy_value','confusion accuracy');
#1098 = PRODUCT_RELATED_PRODUCT_CATEGORY('part',$,(#7));
ENDSEC;
END-ISO-10303-21;
